<?xml version="1.0" standalone="no"?><!DOCTYPE svg PUBLIC "-//W3C//DTD SVG 1.1//EN" "http://www.w3.org/Graphics/SVG/1.1/DTD/svg11.dtd"><svg t="1727619062574" class="icon" viewBox="0 0 1024 1024" version="1.1" xmlns="http://www.w3.org/2000/svg" p-id="1982" xmlns:xlink="http://www.w3.org/1999/xlink" width="200" height="200"><path d="M466.261333 313.582933l58.5728 58.5728 59.8016-59.8016a292.6592 292.6592 0 0 0-55.534933-5.666133c-21.504 0-42.496 2.4576-62.839467 6.894933z m82.705067 82.705067l103.867733 103.867733 96.938667-96.938666c-35.7376-36.795733-78.779733-64.989867-126.6688-81.066667l-74.1376 74.1376z m291.976533 171.758933a370.005333 370.005333 0 0 0-68.608-139.127466l-95.402666 95.402666 103.867733 103.867734 60.142933-60.142934z m-84.309333 84.2752l-103.867733-103.867733-103.867734 103.867733 103.867734 103.867734 103.867733-103.867734z m-128 128l-103.867733-103.867733-103.867734 103.867733 103.867734 103.867734 103.867733-103.867734z m-335.598933-128.068266l103.867733 103.867733 103.867733-103.867733-103.867733-103.867734-103.867733 103.867734z m-84.7872-36.386134c-2.013867 16.145067-3.413333 32.494933-3.413334 49.2544 0 8.738133 0.6144 17.3056 1.194667 25.873067l38.673067-38.673067-36.4544-36.4544z m420.386133-91.5456l-103.867733-103.867733-103.867734 103.867733 103.867734 103.867734 103.867733-103.867734zM446.122667 1011.165867a293.819733 293.819733 0 0 0 82.978133 12.322133c26.350933 0 51.8144-3.857067 76.356267-10.4448l-80.622934-80.622933-78.711466 78.7456z m102.843733-102.877867l92.535467 92.535467a323.6864 323.6864 0 0 0 120.6272-87.108267l-109.294934-109.294933-103.867733 103.867733z m128-128l106.461867 106.461867a374.135467 374.135467 0 0 0 62.395733-145.339734l-64.955733-64.955733-103.901867 103.8336z m128-128l46.830933 46.830933c0.955733-11.195733 1.570133-22.528 1.570134-34.030933 0-19.3536-1.774933-38.1952-4.471467-56.7296l-43.9296 43.9296z m110.7968-341.4016c-36.283733-31.505067-84.002133-46.216533-150.186667-46.216533a658.773333 658.773333 0 0 0-71.441066 4.642133c27.3408-40.209067 94.651733-83.797333 147.182933-99.908267a17.1008 17.1008 0 0 0-4.027733-33.348266c-16.520533-0.955733-31.675733-2.048-45.6704-3.037867-66.082133-4.778667-109.226667-9.386667-148.138667 18.807467-9.3184-30.754133-30.1056-52.872533-50.346667-74.478934-18.3296-19.5584-37.307733-39.765333-48.162133-67.072-5.154133-13.0048-26.555733-13.0048-31.744 0-10.8544 27.306667-29.832533 47.547733-48.162133 67.072-20.241067 21.6064-41.028267 43.7248-50.346667 74.478934-38.946133-28.228267-82.090667-23.586133-148.138667-18.807467-13.994667 0.989867-29.149867 2.116267-45.6704 3.037867a17.066667 17.066667 0 0 0-4.027733 33.348266c52.667733 16.1792 120.2176 59.904 147.421867 100.215467a839.645867 839.645867 0 0 0-83.114667-4.949333c-79.428267 0-137.6256 15.5648-172.885333 46.216533a16.9984 16.9984 0 0 0 7.850666 29.627733c13.073067 2.594133 38.4 4.881067 70.4512 7.748267 32.529067 2.935467 72.977067 6.5536 109.2608 11.4688a17.066667 17.066667 0 0 0 13.380267-3.959467 354.4064 354.4064 0 0 1 79.7696-51.9168c1.092267-0.512 1.570133-1.672533 2.491733-2.389333a16.964267 16.964267 0 0 0 6.212267-1.262933 327.099733 327.099733 0 0 1 262.656 0c1.979733 0.887467 4.096 1.2288 6.212267 1.297066 0.9216 0.682667 1.365333 1.809067 2.423466 2.286934 26.589867 12.3904 52.497067 29.115733 76.936534 49.595733a17.134933 17.134933 0 0 0 13.141333 3.857067c28.945067-3.754667 58.504533-6.656 84.002133-9.147734 28.945067-2.833067 51.8144-5.051733 64.682667-7.645866a17.066667 17.066667 0 0 0 7.9872-29.559467zM396.834133 804.420267l-104.618666 104.618666c32.733867 38.8096 73.0112 69.563733 118.408533 89.326934l90.077867-90.077867-103.867734-103.867733z m-181.213866-229.4784l53.213866 53.213866 103.867734-103.867733-90.7264-90.7264a372.6336 372.6336 0 0 0-66.3552 141.380267z m88.576-167.424l92.637866 92.637866 103.867734-103.867733-71.850667-71.850667c-47.274667 17.032533-89.7024 45.7728-124.654933 83.080534z m-35.362134 268.9024l-57.821866 57.821866a375.057067 375.057067 0 0 0 60.3136 147.421867l101.376-101.376-103.867734-103.867733z" p-id="1983" fill="#87c38f"></path></svg>