<?xml version="1.0" encoding="UTF-8"?>
<!DOCTYPE svg PUBLIC "-//W3C//DTD SVG 1.1//EN" "http://www.w3.org/Graphics/SVG/1.1/DTD/svg11.dtd">
<svg xmlns="http://www.w3.org/2000/svg" version="1.1" width="64px" height="64px" style="shape-rendering:geometricPrecision; text-rendering:geometricPrecision; image-rendering:optimizeQuality; fill-rule:evenodd; clip-rule:evenodd" xmlns:xlink="http://www.w3.org/1999/xlink">
<g><path style="opacity:1" fill="#eab423" d="M 29.5,-0.5 C 30.8333,-0.5 32.1667,-0.5 33.5,-0.5C 36.3112,0.474989 39.3112,1.14166 42.5,1.5C 42.1667,2.16667 41.8333,2.83333 41.5,3.5C 40.0048,3.98869 38.6715,4.65536 37.5,5.5C 34.2053,6.82447 32.872,5.49114 33.5,1.5C 30.5,1.5 27.5,1.5 24.5,1.5C 26.1667,0.833333 27.8333,0.166667 29.5,-0.5 Z"/></g>
<g><path style="opacity:0.486" fill="#efc35b" d="M 33.5,-0.5 C 35.8333,-0.5 38.1667,-0.5 40.5,-0.5C 41.1667,0.166667 41.8333,0.833333 42.5,1.5C 39.3112,1.14166 36.3112,0.474989 33.5,-0.5 Z"/></g>
<g><path style="opacity:1" fill="#e7ce59" d="M 21.5,3.5 C 21.9175,4.22158 22.5842,4.72158 23.5,5C 23.1667,5.33333 22.8333,5.66667 22.5,6C 25.9431,6.22131 26.2764,7.22131 23.5,9C 24.8989,9.59456 26.2322,9.42789 27.5,8.5C 28.463,8.96983 28.463,9.6365 27.5,10.5C 26.4479,12.256 24.7812,12.9227 22.5,12.5C 22.8896,7.57761 21.7229,7.24428 19,11.5C 18.6667,11.1667 18.3333,10.8333 18,10.5C 17.3162,11.7839 17.4829,12.9505 18.5,14C 17.244,14.4169 16.5774,15.2502 16.5,16.5C 15.8333,17.8333 15.1667,19.1667 14.5,20.5C 12.7673,19.9924 12.434,19.159 13.5,18C 11.065,17.9252 10.3984,17.0919 11.5,15.5C 12.1174,15.3893 12.6174,15.056 13,14.5C 12.3123,8.02895 15.1457,4.36228 21.5,3.5 Z"/></g>
<g><path style="opacity:1" fill="#e7ce59" d="M 24.5,1.5 C 27.5,1.5 30.5,1.5 33.5,1.5C 32.872,5.49114 34.2053,6.82447 37.5,5.5C 38.9349,6.9848 38.7683,8.31814 37,9.5C 35.951,7.89339 34.451,7.22672 32.5,7.5C 32.4326,8.95875 32.7659,10.2921 33.5,11.5C 32.8826,11.6107 32.3826,11.944 32,12.5C 30.8904,10.9632 29.3904,10.2965 27.5,10.5C 28.463,9.6365 28.463,8.96983 27.5,8.5C 26.2322,9.42789 24.8989,9.59456 23.5,9C 26.2764,7.22131 25.9431,6.22131 22.5,6C 22.8333,5.66667 23.1667,5.33333 23.5,5C 22.5842,4.72158 21.9175,4.22158 21.5,3.5C 22.5,2.83333 23.5,2.16667 24.5,1.5 Z"/></g>
<g><path style="opacity:1" fill="#edbb3f" d="M 42.5,1.5 C 49.8178,3.47982 55.1511,7.81316 58.5,14.5C 57.8333,14.1667 57.1667,13.8333 56.5,13.5C 54.5,11.8333 52.5,10.1667 50.5,8.5C 48.2515,5.60657 45.2515,3.9399 41.5,3.5C 41.8333,2.83333 42.1667,2.16667 42.5,1.5 Z"/></g>
<g><path style="opacity:0.992" fill="#ebb730" d="M 23.5,-0.5 C 25.5,-0.5 27.5,-0.5 29.5,-0.5C 27.8333,0.166667 26.1667,0.833333 24.5,1.5C 23.5,2.16667 22.5,2.83333 21.5,3.5C 15.1457,4.36228 12.3123,8.02895 13,14.5C 12.6174,15.056 12.1174,15.3893 11.5,15.5C 10.4863,14.3263 9.15298,13.6596 7.5,13.5C 7.16667,13.5 6.83333,13.5 6.5,13.5C 6.5,12.8333 6.5,12.1667 6.5,11.5C 10.9735,5.76718 16.6402,1.76718 23.5,-0.5 Z"/></g>
<g><path style="opacity:1" fill="#e7ce5a" d="M 37.5,5.5 C 39.4258,6.24234 41.2591,7.24234 43,8.5C 42.2931,10.8431 42.6265,13.1765 44,15.5C 45.159,14.434 45.9924,14.7673 46.5,16.5C 45.0413,16.4326 43.7079,16.7659 42.5,17.5C 41.4264,16.1154 40.0931,14.9487 38.5,14C 39.5171,12.9505 39.6838,11.7839 39,10.5C 37.6861,11.3128 36.5195,12.3128 35.5,13.5C 34.3044,13.1543 34.3044,12.6543 35.5,12C 34.9056,11.5357 34.2389,11.369 33.5,11.5C 32.7659,10.2921 32.4326,8.95875 32.5,7.5C 34.451,7.22672 35.951,7.89339 37,9.5C 38.7683,8.31814 38.9349,6.9848 37.5,5.5 Z"/></g>
<g><path style="opacity:1" fill="#e7cd59" d="M 41.5,3.5 C 45.2515,3.9399 48.2515,5.60657 50.5,8.5C 49.7784,8.91753 49.2784,9.5842 49,10.5C 47.6124,9.44636 46.1124,9.27969 44.5,10C 46.1667,11.3333 47.8333,12.6667 49.5,14C 48.244,14.4169 47.5774,15.2502 47.5,16.5C 47.1667,16.5 46.8333,16.5 46.5,16.5C 45.9924,14.7673 45.159,14.434 44,15.5C 42.6265,13.1765 42.2931,10.8431 43,8.5C 41.2591,7.24234 39.4258,6.24234 37.5,5.5C 38.6715,4.65536 40.0048,3.98869 41.5,3.5 Z"/></g>
<g><path style="opacity:1" fill="#e7ce5a" d="M 27.5,10.5 C 29.3904,10.2965 30.8904,10.9632 32,12.5C 32.3826,11.944 32.8826,11.6107 33.5,11.5C 35.4231,16.4145 34.2565,17.4145 30,14.5C 28.9326,15.1905 27.7659,15.6905 26.5,16C 27.7383,16.69 27.7383,17.19 26.5,17.5C 24.3254,17.3178 22.3254,16.6511 20.5,15.5C 19.1508,15.8457 17.8175,16.179 16.5,16.5C 16.5774,15.2502 17.244,14.4169 18.5,14C 17.4829,12.9505 17.3162,11.7839 18,10.5C 18.3333,10.8333 18.6667,11.1667 19,11.5C 21.7229,7.24428 22.8896,7.57761 22.5,12.5C 24.7812,12.9227 26.4479,12.256 27.5,10.5 Z"/></g>
<g><path style="opacity:0.502" fill="#f4cc76" d="M 6.5,11.5 C 6.5,12.1667 6.5,12.8333 6.5,13.5C 5.83333,13.8333 5.16667,14.1667 4.5,14.5C 4.42702,12.9731 5.09368,11.9731 6.5,11.5 Z"/></g>
<g><path style="opacity:1" fill="#e7ce59" d="M 50.5,8.5 C 52.5,10.1667 54.5,11.8333 56.5,13.5C 56.5,13.8333 56.5,14.1667 56.5,14.5C 55.596,15.209 55.2627,16.209 55.5,17.5C 52.7212,17.7214 50.0545,17.388 47.5,16.5C 47.5774,15.2502 48.244,14.4169 49.5,14C 47.8333,12.6667 46.1667,11.3333 44.5,10C 46.1124,9.27969 47.6124,9.44636 49,10.5C 49.2784,9.5842 49.7784,8.91753 50.5,8.5 Z"/></g>
<g><path style="opacity:1" fill="#e7ce59" d="M 7.5,13.5 C 9.15298,13.6596 10.4863,14.3263 11.5,15.5C 10.3984,17.0919 11.065,17.9252 13.5,18C 12.434,19.159 12.7673,19.9924 14.5,20.5C 14.6882,22.1033 14.1882,23.4366 13,24.5C 9.36326,22.8888 6.86326,20.2222 5.5,16.5C 7.04814,16.1788 7.71481,15.1788 7.5,13.5 Z"/></g>
<g><path style="opacity:1" fill="#e7ce59" d="M 26.5,17.5 C 26.5,18.1667 26.5,18.8333 26.5,19.5C 25.8112,20.7072 25.6446,22.0406 26,23.5C 25.6667,23.8333 25.3333,24.1667 25,24.5C 24.5172,23.552 24.3505,22.552 24.5,21.5C 23.448,21.6495 22.448,21.4828 21.5,21C 22.7112,20.1072 22.7112,19.2739 21.5,18.5C 20.1667,20.1667 20.1667,21.8333 21.5,23.5C 22.3957,22.4937 23.0623,22.4937 23.5,23.5C 22.6798,25.1112 21.3464,25.7778 19.5,25.5C 18.1667,25.1667 16.8333,24.8333 15.5,24.5C 17.1751,22.544 16.8418,21.2107 14.5,20.5C 15.1667,19.1667 15.8333,17.8333 16.5,16.5C 17.8175,16.179 19.1508,15.8457 20.5,15.5C 22.3254,16.6511 24.3254,17.3178 26.5,17.5 Z"/></g>
<g><path style="opacity:1" fill="#e7ce59" d="M 42.5,17.5 C 42.5,18.1667 42.5,18.8333 42.5,19.5C 40.7088,18.5168 39.2088,17.1835 38,15.5C 37.8333,16.1667 37.6667,16.8333 37.5,17.5C 38.7286,19.3987 39.8952,21.3987 41,23.5C 42.0674,24.1905 43.2341,24.6905 44.5,25C 43.0577,25.3768 42.0577,26.2101 41.5,27.5C 40.4274,28.6579 39.2607,28.6579 38,27.5C 36.9701,27.8361 36.4701,28.5028 36.5,29.5C 35.1667,28.8333 34.1667,27.8333 33.5,26.5C 34.8734,26.6567 36.2068,26.49 37.5,26C 36.0692,25.5348 34.9025,24.7014 34,23.5C 32.3335,24.3402 32.1669,23.8402 33.5,22C 32.1198,20.6764 31.7865,19.3431 32.5,18C 31.2752,17.4372 30.2752,17.7705 29.5,19C 31.0074,19.8373 31.5074,21.0039 31,22.5C 29.3853,21.6138 27.8853,20.6138 26.5,19.5C 26.5,18.8333 26.5,18.1667 26.5,17.5C 27.7383,17.19 27.7383,16.69 26.5,16C 27.7659,15.6905 28.9326,15.1905 30,14.5C 34.2565,17.4145 35.4231,16.4145 33.5,11.5C 34.2389,11.369 34.9056,11.5357 35.5,12C 34.3044,12.6543 34.3044,13.1543 35.5,13.5C 36.5195,12.3128 37.6861,11.3128 39,10.5C 39.6838,11.7839 39.5171,12.9505 38.5,14C 40.0931,14.9487 41.4264,16.1154 42.5,17.5 Z"/></g>
<g><path style="opacity:1" fill="#ebb72f" d="M 56.5,13.5 C 57.1667,13.8333 57.8333,14.1667 58.5,14.5C 60.2503,15.6594 61.2503,17.326 61.5,19.5C 62.1032,22.0409 62.1032,24.3743 61.5,26.5C 59.572,24.5259 57.2387,23.0259 54.5,22C 53.7476,21.3292 53.4142,20.4959 53.5,19.5C 56.741,18.9626 57.741,17.2959 56.5,14.5C 56.5,14.1667 56.5,13.8333 56.5,13.5 Z"/></g>
<g><path style="opacity:1" fill="#e7ce5a" d="M 33.5,26.5 C 32.1667,26.5 30.8333,26.5 29.5,26.5C 29.719,25.325 29.3857,24.325 28.5,23.5C 25.7365,26.4595 22.4032,27.6262 18.5,27C 19.056,26.6174 19.3893,26.1174 19.5,25.5C 21.3464,25.7778 22.6798,25.1112 23.5,23.5C 23.0623,22.4937 22.3957,22.4937 21.5,23.5C 20.1667,21.8333 20.1667,20.1667 21.5,18.5C 22.7112,19.2739 22.7112,20.1072 21.5,21C 22.448,21.4828 23.448,21.6495 24.5,21.5C 24.3505,22.552 24.5172,23.552 25,24.5C 25.3333,24.1667 25.6667,23.8333 26,23.5C 25.6446,22.0406 25.8112,20.7072 26.5,19.5C 27.8853,20.6138 29.3853,21.6138 31,22.5C 31.5074,21.0039 31.0074,19.8373 29.5,19C 30.2752,17.7705 31.2752,17.4372 32.5,18C 31.7865,19.3431 32.1198,20.6764 33.5,22C 32.1669,23.8402 32.3335,24.3402 34,23.5C 34.9025,24.7014 36.0692,25.5348 37.5,26C 36.2068,26.49 34.8734,26.6567 33.5,26.5 Z"/></g>
<g><path style="opacity:1" fill="#e7cd59" d="M 56.5,14.5 C 57.741,17.2959 56.741,18.9626 53.5,19.5C 50.9832,21.0771 50.9832,22.9104 53.5,25C 49.7976,26.3522 49.7976,27.8522 53.5,29.5C 53.1583,30.3382 52.4916,30.6716 51.5,30.5C 50.5,30.1667 49.8333,29.5 49.5,28.5C 49.3225,27.3052 48.9891,26.1385 48.5,25C 49.7912,22.9497 50.2912,20.783 50,18.5C 48.2041,19.767 46.3707,19.767 44.5,18.5C 43.8076,19.0253 43.3076,19.6919 43,20.5C 42.6012,20.2716 42.4346,19.9382 42.5,19.5C 42.5,18.8333 42.5,18.1667 42.5,17.5C 43.7079,16.7659 45.0413,16.4326 46.5,16.5C 46.8333,16.5 47.1667,16.5 47.5,16.5C 50.0545,17.388 52.7212,17.7214 55.5,17.5C 55.2627,16.209 55.596,15.209 56.5,14.5 Z"/></g>
<g><path style="opacity:1" fill="#e7ce5a" d="M 53.5,19.5 C 53.4142,20.4959 53.7476,21.3292 54.5,22C 57.2387,23.0259 59.572,24.5259 61.5,26.5C 61.5,29.1667 61.5,31.8333 61.5,34.5C 60.5655,33.4324 60.2322,32.099 60.5,30.5C 59.5,30.5 58.5,30.5 57.5,30.5C 57.2865,28.8561 57.6198,27.3561 58.5,26C 56.2078,23.9762 55.5411,24.3095 56.5,27C 55.2845,29.0955 54.4512,28.9288 54,26.5C 53.5172,27.448 53.3505,28.448 53.5,29.5C 49.7976,27.8522 49.7976,26.3522 53.5,25C 50.9832,22.9104 50.9832,21.0771 53.5,19.5 Z"/></g>
<g><path style="opacity:1" fill="#e7ce59" d="M 5.5,16.5 C 6.86326,20.2222 9.36326,22.8888 13,24.5C 14.1882,23.4366 14.6882,22.1033 14.5,20.5C 16.8418,21.2107 17.1751,22.544 15.5,24.5C 13.6675,25.2485 12.0009,26.2485 10.5,27.5C 10.0133,26.5266 9.51328,25.5266 9,24.5C 7.36101,26.4008 5.86101,28.4008 4.5,30.5C 4.63101,31.2389 4.46434,31.9056 4,32.5C 3.66667,30.5 3.33333,28.5 3,26.5C 2.50204,29.4816 2.33537,32.4816 2.5,35.5C 1.66175,35.1583 1.32842,34.4916 1.5,33.5C 0.81652,27.2461 2.14985,21.5794 5.5,16.5 Z"/></g>
<g><path style="opacity:1" fill="#e7ce5a" d="M 42.5,19.5 C 42.4346,19.9382 42.6012,20.2716 43,20.5C 43.3076,19.6919 43.8076,19.0253 44.5,18.5C 46.3707,19.767 48.2041,19.767 50,18.5C 50.2912,20.783 49.7912,22.9497 48.5,25C 48.9891,26.1385 49.3225,27.3052 49.5,28.5C 47.2104,30.0329 46.5437,29.6996 47.5,27.5C 47.1924,26.6919 46.6924,26.0253 46,25.5C 44.6403,27.5723 44.1403,29.5723 44.5,31.5C 43.0462,30.4797 42.7129,29.313 43.5,28C 42.9056,27.5357 42.2389,27.369 41.5,27.5C 42.0577,26.2101 43.0577,25.3768 44.5,25C 43.2341,24.6905 42.0674,24.1905 41,23.5C 39.8952,21.3987 38.7286,19.3987 37.5,17.5C 37.6667,16.8333 37.8333,16.1667 38,15.5C 39.2088,17.1835 40.7088,18.5168 42.5,19.5 Z"/></g>
<g><path style="opacity:1" fill="#e7ce5a" d="M 29.5,26.5 C 28.8333,27.5 28.1667,28.5 27.5,29.5C 26.8333,30.8333 26.1667,32.1667 25.5,33.5C 25.5,32.5 25.5,31.5 25.5,30.5C 24.0695,30.5792 22.7362,30.2458 21.5,29.5C 20.4822,30.1925 19.4822,30.8592 18.5,31.5C 17.1667,31.5 15.8333,31.5 14.5,31.5C 14.7672,28.225 13.7672,27.3916 11.5,29C 12.1667,29.3333 12.8333,29.6667 13.5,30C 9.62879,33.3226 8.62879,32.4892 10.5,27.5C 12.0009,26.2485 13.6675,25.2485 15.5,24.5C 16.8333,24.8333 18.1667,25.1667 19.5,25.5C 19.3893,26.1174 19.056,26.6174 18.5,27C 22.4032,27.6262 25.7365,26.4595 28.5,23.5C 29.3857,24.325 29.719,25.325 29.5,26.5 Z"/></g>
<g><path style="opacity:1" fill="#eab527" d="M 29.5,26.5 C 30.8333,26.5 32.1667,26.5 33.5,26.5C 34.1667,27.8333 35.1667,28.8333 36.5,29.5C 36.8504,32.4534 35.8504,34.7867 33.5,36.5C 32.8333,36.5 32.1667,36.5 31.5,36.5C 28.0132,35.5554 26.6799,33.2221 27.5,29.5C 28.1667,28.5 28.8333,27.5 29.5,26.5 Z"/></g>
<g><path style="opacity:1" fill="#e7ce59" d="M 49.5,28.5 C 49.8333,29.5 50.5,30.1667 51.5,30.5C 51.8333,31.8333 52.1667,33.1667 52.5,34.5C 51.5416,34.9528 50.7083,35.6195 50,36.5C 49.5814,35.3279 48.9147,34.3279 48,33.5C 47.8413,35.3427 47.3413,36.0093 46.5,35.5C 45.1938,34.5326 44.5271,33.1993 44.5,31.5C 44.1403,29.5723 44.6403,27.5723 46,25.5C 46.6924,26.0253 47.1924,26.6919 47.5,27.5C 46.5437,29.6996 47.2104,30.0329 49.5,28.5 Z"/></g>
<g><path style="opacity:1" fill="#e7ce59" d="M 61.5,34.5 C 61.7062,37.4951 61.0395,40.1617 59.5,42.5C 59.5299,41.5028 59.0299,40.8361 58,40.5C 54.172,42.1803 53.3387,41.6803 55.5,39C 54.9558,38.2828 54.2891,37.7828 53.5,37.5C 53.4431,36.391 53.1098,35.391 52.5,34.5C 52.1667,33.1667 51.8333,31.8333 51.5,30.5C 52.4916,30.6716 53.1583,30.3382 53.5,29.5C 53.3505,28.448 53.5172,27.448 54,26.5C 54.4512,28.9288 55.2845,29.0955 56.5,27C 55.5411,24.3095 56.2078,23.9762 58.5,26C 57.6198,27.3561 57.2865,28.8561 57.5,30.5C 58.5,30.5 59.5,30.5 60.5,30.5C 60.2322,32.099 60.5655,33.4324 61.5,34.5 Z"/></g>
<g><path style="opacity:1" fill="#edbf49" d="M 6.5,13.5 C 6.83333,13.5 7.16667,13.5 7.5,13.5C 7.71481,15.1788 7.04814,16.1788 5.5,16.5C 2.14985,21.5794 0.81652,27.2461 1.5,33.5C 0.448928,36.3442 0.448928,39.3442 1.5,42.5C 0.833333,41.8333 0.166667,41.1667 -0.5,40.5C -0.5,34.8333 -0.5,29.1667 -0.5,23.5C 0.603843,20.1896 2.27051,17.1896 4.5,14.5C 5.16667,14.1667 5.83333,13.8333 6.5,13.5 Z"/></g>
<g><path style="opacity:1" fill="#e7ce59" d="M 10.5,27.5 C 8.62879,32.4892 9.62879,33.3226 13.5,30C 12.8333,29.6667 12.1667,29.3333 11.5,29C 13.7672,27.3916 14.7672,28.225 14.5,31.5C 15.8333,31.5 17.1667,31.5 18.5,31.5C 19.5981,32.397 19.5981,33.2303 18.5,34C 19.624,34.2492 20.624,34.7492 21.5,35.5C 21.1543,36.6956 20.6543,36.6956 20,35.5C 19.5357,36.0944 19.369,36.7611 19.5,37.5C 19.1667,37.5 18.8333,37.5 18.5,37.5C 16.682,36.8547 15.182,35.188 14,32.5C 12.4345,31.9394 11.1011,32.6061 10,34.5C 8.0083,33.3353 6.17496,32.002 4.5,30.5C 5.86101,28.4008 7.36101,26.4008 9,24.5C 9.51328,25.5266 10.0133,26.5266 10.5,27.5 Z"/></g>
<g><path style="opacity:1" fill="#e7ce5a" d="M 25.5,33.5 C 25.415,35.9288 24.415,37.9288 22.5,39.5C 21.7251,37.6978 20.7251,37.0311 19.5,37.5C 19.369,36.7611 19.5357,36.0944 20,35.5C 20.6543,36.6956 21.1543,36.6956 21.5,35.5C 20.624,34.7492 19.624,34.2492 18.5,34C 19.5981,33.2303 19.5981,32.397 18.5,31.5C 19.4822,30.8592 20.4822,30.1925 21.5,29.5C 22.7362,30.2458 24.0695,30.5792 25.5,30.5C 25.5,31.5 25.5,32.5 25.5,33.5 Z"/></g>
<g><path style="opacity:1" fill="#e7ce59" d="M 4.5,30.5 C 6.17496,32.002 8.0083,33.3353 10,34.5C 11.1011,32.6061 12.4345,31.9394 14,32.5C 15.182,35.188 16.682,36.8547 18.5,37.5C 18.1667,39.5 17.8333,41.5 17.5,43.5C 16.2022,44.1157 15.2022,44.1157 14.5,43.5C 11.6451,42.1264 10.1451,39.793 10,36.5C 9.76445,38.1193 8.93112,39.1193 7.5,39.5C 5.61145,38.396 3.94478,37.0627 2.5,35.5C 2.33537,32.4816 2.50204,29.4816 3,26.5C 3.33333,28.5 3.66667,30.5 4,32.5C 4.46434,31.9056 4.63101,31.2389 4.5,30.5 Z"/></g>
<g><path style="opacity:1" fill="#e7ce59" d="M 41.5,27.5 C 42.2389,27.369 42.9056,27.5357 43.5,28C 42.7129,29.313 43.0462,30.4797 44.5,31.5C 44.5271,33.1993 45.1938,34.5326 46.5,35.5C 45.3473,36.3132 45.3473,37.3132 46.5,38.5C 44.565,39.213 44.2317,40.213 45.5,41.5C 43.076,41.8076 40.7427,41.4742 38.5,40.5C 36.829,39.1643 35.1624,37.831 33.5,36.5C 35.8504,34.7867 36.8504,32.4534 36.5,29.5C 36.4701,28.5028 36.9701,27.8361 38,27.5C 39.2607,28.6579 40.4274,28.6579 41.5,27.5 Z"/></g>
<g><path style="opacity:1" fill="#e7ce5a" d="M 52.5,34.5 C 53.1098,35.391 53.4431,36.391 53.5,37.5C 52.4415,38.6002 51.6082,39.9336 51,41.5C 49.7083,40.2089 48.5417,40.2089 47.5,41.5C 46.8333,41.5 46.1667,41.5 45.5,41.5C 44.2317,40.213 44.565,39.213 46.5,38.5C 45.3473,37.3132 45.3473,36.3132 46.5,35.5C 47.3413,36.0093 47.8413,35.3427 48,33.5C 48.9147,34.3279 49.5814,35.3279 50,36.5C 50.7083,35.6195 51.5416,34.9528 52.5,34.5 Z"/></g>
<g><path style="opacity:1" fill="#ebb62c" d="M 1.5,33.5 C 1.32842,34.4916 1.66175,35.1583 2.5,35.5C 3.94478,37.0627 5.61145,38.396 7.5,39.5C 8.41041,41.5014 7.57708,42.8347 5,43.5C 4.51722,44.448 4.35055,45.448 4.5,46.5C 3.83333,46.5 3.16667,46.5 2.5,46.5C 1.76589,45.2921 1.43255,43.9587 1.5,42.5C 0.448928,39.3442 0.448928,36.3442 1.5,33.5 Z"/></g>
<g><path style="opacity:1" fill="#e7cd58" d="M 27.5,29.5 C 26.6799,33.2221 28.0132,35.5554 31.5,36.5C 30.4324,37.4345 29.099,37.7678 27.5,37.5C 25.9724,38.8021 24.9724,40.4687 24.5,42.5C 22.0298,41.1221 19.6965,41.4554 17.5,43.5C 17.8333,41.5 18.1667,39.5 18.5,37.5C 18.8333,37.5 19.1667,37.5 19.5,37.5C 20.7251,37.0311 21.7251,37.6978 22.5,39.5C 24.415,37.9288 25.415,35.9288 25.5,33.5C 26.1667,32.1667 26.8333,30.8333 27.5,29.5 Z"/></g>
<g><path style="opacity:1" fill="#e7ce5a" d="M 31.5,36.5 C 32.1667,36.5 32.8333,36.5 33.5,36.5C 35.1624,37.831 36.829,39.1643 38.5,40.5C 40.7427,41.4742 43.076,41.8076 45.5,41.5C 46.1667,41.5 46.8333,41.5 47.5,41.5C 47.3757,42.1968 47.3757,43.0301 47.5,44C 46.8333,44.3333 46.1667,44.6667 45.5,45C 47.1601,46.2644 48.8268,46.7644 50.5,46.5C 50.81,49.7131 50.4767,52.7131 49.5,55.5C 49.2417,53.8098 49.2417,51.8098 49.5,49.5C 48.1667,49.5 46.8333,49.5 45.5,49.5C 44.4502,49.0954 44.4502,48.4288 45.5,47.5C 44.624,46.7492 43.624,46.2492 42.5,46C 43.2583,44.6361 42.7583,43.4695 41,42.5C 39.9025,43.9675 38.4025,44.8008 36.5,45C 37.9804,47.6679 39.4804,47.8345 41,45.5C 41.4828,46.448 41.6495,47.448 41.5,48.5C 39.396,48.7989 37.396,48.4656 35.5,47.5C 35.9177,44.8108 35.4177,42.1441 34,39.5C 33.6667,40.1667 33.3333,40.8333 33,41.5C 32.3333,40.1667 31.6667,40.1667 31,41.5C 30.195,39.0989 29.3617,39.2656 28.5,42C 29.8764,44.5425 31.043,44.7092 32,42.5C 34.3961,45.6653 33.8961,47.9986 30.5,49.5C 30.4142,48.5041 30.7476,47.6708 31.5,47C 30.2312,47.1085 29.2312,46.9418 28.5,46.5C 28.7035,44.6096 28.0368,43.1096 26.5,42C 27.3802,40.6439 27.7135,39.1439 27.5,37.5C 29.099,37.7678 30.4324,37.4345 31.5,36.5 Z"/></g>
<g><path style="opacity:1" fill="#e7ce59" d="M 53.5,37.5 C 54.2891,37.7828 54.9558,38.2828 55.5,39C 53.3387,41.6803 54.172,42.1803 58,40.5C 59.0299,40.8361 59.5299,41.5028 59.5,42.5C 58.3548,47.5554 55.3548,48.8887 50.5,46.5C 48.8268,46.7644 47.1601,46.2644 45.5,45C 46.1667,44.6667 46.8333,44.3333 47.5,44C 47.3757,43.0301 47.3757,42.1968 47.5,41.5C 48.5417,40.2089 49.7083,40.2089 51,41.5C 51.6082,39.9336 52.4415,38.6002 53.5,37.5 Z"/></g>
<g><path style="opacity:0.91" fill="#edbc41" d="M 61.5,19.5 C 62.1667,20.5 62.8333,21.5 63.5,22.5C 63.5,28.8333 63.5,35.1667 63.5,41.5C 59.0776,52.2564 51.4109,59.5897 40.5,63.5C 38.1667,63.5 35.8333,63.5 33.5,63.5C 32.8333,62.8333 32.1667,62.1667 31.5,61.5C 35.3352,61.5835 39.0019,60.9168 42.5,59.5C 45.3311,58.9213 47.6644,57.588 49.5,55.5C 50.4767,52.7131 50.81,49.7131 50.5,46.5C 55.3548,48.8887 58.3548,47.5554 59.5,42.5C 61.0395,40.1617 61.7062,37.4951 61.5,34.5C 61.5,31.8333 61.5,29.1667 61.5,26.5C 62.1032,24.3743 62.1032,22.0409 61.5,19.5 Z"/></g>
<g><path style="opacity:1" fill="#e7ce5a" d="M 24.5,42.5 C 23.0047,42.4148 22.0047,43.0815 21.5,44.5C 21.8457,45.6956 22.3457,45.6956 23,44.5C 23.6667,45.8333 23.6667,47.1667 23,48.5C 22.2303,47.4019 21.397,47.4019 20.5,48.5C 18.8564,47.6836 17.6897,46.3502 17,44.5C 15.5295,45.2666 14.0295,45.9332 12.5,46.5C 12.427,44.9731 13.0937,43.9731 14.5,43.5C 15.2022,44.1157 16.2022,44.1157 17.5,43.5C 19.6965,41.4554 22.0298,41.1221 24.5,42.5 Z"/></g>
<g><path style="opacity:1" fill="#e7ce59" d="M 27.5,37.5 C 27.7135,39.1439 27.3802,40.6439 26.5,42C 28.0368,43.1096 28.7035,44.6096 28.5,46.5C 27.8826,46.3893 27.3826,46.056 27,45.5C 25.0879,47.6572 23.4213,49.9906 22,52.5C 21.0793,51.2917 20.5793,49.9584 20.5,48.5C 21.397,47.4019 22.2303,47.4019 23,48.5C 23.6667,47.1667 23.6667,45.8333 23,44.5C 22.3457,45.6956 21.8457,45.6956 21.5,44.5C 22.0047,43.0815 23.0047,42.4148 24.5,42.5C 24.9724,40.4687 25.9724,38.8021 27.5,37.5 Z"/></g>
<g><path style="opacity:1" fill="#e7cd59" d="M 14.5,43.5 C 13.0937,43.9731 12.427,44.9731 12.5,46.5C 11.663,46.3979 10.9963,45.3979 10.5,43.5C 10.1236,44.6848 10.1236,46.0181 10.5,47.5C 9.29049,47.9321 8.29049,48.5987 7.5,49.5C 6.72813,48.3065 5.72813,47.3065 4.5,46.5C 4.35055,45.448 4.51722,44.448 5,43.5C 7.57708,42.8347 8.41041,41.5014 7.5,39.5C 8.93112,39.1193 9.76445,38.1193 10,36.5C 10.1451,39.793 11.6451,42.1264 14.5,43.5 Z"/></g>
<g><path style="opacity:1" fill="#e7ce59" d="M 45.5,49.5 C 44.47,52.1921 42.47,53.6921 39.5,54C 40.1305,56.099 41.1305,57.9323 42.5,59.5C 39.0019,60.9168 35.3352,61.5835 31.5,61.5C 32.0838,58.715 31.0838,57.0483 28.5,56.5C 29.2625,55.7321 30.2625,55.2321 31.5,55C 28.2318,53.9125 27.8985,52.0791 30.5,49.5C 33.8961,47.9986 34.3961,45.6653 32,42.5C 31.043,44.7092 29.8764,44.5425 28.5,42C 29.3617,39.2656 30.195,39.0989 31,41.5C 31.6667,40.1667 32.3333,40.1667 33,41.5C 33.3333,40.8333 33.6667,40.1667 34,39.5C 35.4177,42.1441 35.9177,44.8108 35.5,47.5C 37.396,48.4656 39.396,48.7989 41.5,48.5C 41.6495,47.448 41.4828,46.448 41,45.5C 39.4804,47.8345 37.9804,47.6679 36.5,45C 38.4025,44.8008 39.9025,43.9675 41,42.5C 42.7583,43.4695 43.2583,44.6361 42.5,46C 43.624,46.2492 44.624,46.7492 45.5,47.5C 44.4502,48.4288 44.4502,49.0954 45.5,49.5 Z"/></g>
<g><path style="opacity:1" fill="#e7ce59" d="M 12.5,46.5 C 14.0295,45.9332 15.5295,45.2666 17,44.5C 17.6897,46.3502 18.8564,47.6836 20.5,48.5C 20.5793,49.9584 21.0793,51.2917 22,52.5C 23.4213,49.9906 25.0879,47.6572 27,45.5C 27.3826,46.056 27.8826,46.3893 28.5,46.5C 29.2312,46.9418 30.2312,47.1085 31.5,47C 30.7476,47.6708 30.4142,48.5041 30.5,49.5C 27.8985,52.0791 28.2318,53.9125 31.5,55C 30.2625,55.2321 29.2625,55.7321 28.5,56.5C 28.1667,56.5 27.8333,56.5 27.5,56.5C 26.2617,56.19 26.2617,55.69 27.5,55C 23.4045,54.1747 19.7378,52.6747 16.5,50.5C 14.4261,49.4861 12.4261,48.4861 10.5,47.5C 10.1236,46.0181 10.1236,44.6848 10.5,43.5C 10.9963,45.3979 11.663,46.3979 12.5,46.5 Z"/></g>
<g><path style="opacity:1" fill="#e7ce5a" d="M 10.5,47.5 C 12.4261,48.4861 14.4261,49.4861 16.5,50.5C 16.5394,51.5832 16.8728,52.5832 17.5,53.5C 16.9747,54.1924 16.3081,54.6924 15.5,55C 17.0009,56.2515 18.6675,57.2515 20.5,58C 19.9056,58.4643 19.2389,58.631 18.5,58.5C 17.8333,58.5 17.1667,58.5 16.5,58.5C 13.1938,55.8605 10.1938,52.8605 7.5,49.5C 8.29049,48.5987 9.29049,47.9321 10.5,47.5 Z"/></g>
<g><path style="opacity:1" fill="#edbc42" d="M 2.5,46.5 C 3.16667,46.5 3.83333,46.5 4.5,46.5C 5.72813,47.3065 6.72813,48.3065 7.5,49.5C 10.1938,52.8605 13.1938,55.8605 16.5,58.5C 16.8333,59.1667 17.1667,59.8333 17.5,60.5C 11.2051,57.2673 6.20508,52.6007 2.5,46.5 Z"/></g>
<g><path style="opacity:1" fill="#e7cd58" d="M 16.5,50.5 C 19.7378,52.6747 23.4045,54.1747 27.5,55C 26.2617,55.69 26.2617,56.19 27.5,56.5C 25.1959,60.8283 22.1959,61.4949 18.5,58.5C 19.2389,58.631 19.9056,58.4643 20.5,58C 18.6675,57.2515 17.0009,56.2515 15.5,55C 16.3081,54.6924 16.9747,54.1924 17.5,53.5C 16.8728,52.5832 16.5394,51.5832 16.5,50.5 Z"/></g>
<g><path style="opacity:1" fill="#e7ce59" d="M 45.5,49.5 C 46.8333,49.5 48.1667,49.5 49.5,49.5C 49.2417,51.8098 49.2417,53.8098 49.5,55.5C 47.6644,57.588 45.3311,58.9213 42.5,59.5C 41.1305,57.9323 40.1305,56.099 39.5,54C 42.47,53.6921 44.47,52.1921 45.5,49.5 Z"/></g>
<g><path style="opacity:1" fill="#ebb62d" d="M 27.5,56.5 C 27.8333,56.5 28.1667,56.5 28.5,56.5C 31.0838,57.0483 32.0838,58.715 31.5,61.5C 32.1667,62.1667 32.8333,62.8333 33.5,63.5C 29.8333,63.5 26.1667,63.5 22.5,63.5C 20.7392,62.6873 19.0725,61.6873 17.5,60.5C 17.1667,59.8333 16.8333,59.1667 16.5,58.5C 17.1667,58.5 17.8333,58.5 18.5,58.5C 22.1959,61.4949 25.1959,60.8283 27.5,56.5 Z"/></g>
</svg>
