<?xml version="1.0" standalone="no"?><!DOCTYPE svg PUBLIC "-//W3C//DTD SVG 1.1//EN" "http://www.w3.org/Graphics/SVG/1.1/DTD/svg11.dtd"><svg t="1733579962146" class="icon" viewBox="0 0 1024 1024" version="1.1" xmlns="http://www.w3.org/2000/svg" p-id="9771" xmlns:xlink="http://www.w3.org/1999/xlink" width="200" height="200"><path d="M742.417314 742.4m-281.6 0a281.6 281.6 0 1 0 563.2 0 281.6 281.6 0 1 0-563.2 0Z" fill="#25467A" p-id="9772"></path><path d="M703.400171 290.08a311.108571 311.108571 0 0 1 51.84-44.571429 300.754286 300.754286 0 0 1 64-33.2C793.2516 189.165714 744.017314 153.371429 678.874457 151.44a184 184 0 0 0-25.6 1.028571 475.714286 475.714286 0 0 1 25.222857-62.022857 465.485714 465.485714 0 0 1 38.4-64.605714 330.662857 330.662857 0 0 0-89.222857 10.285714c-66.045714 16.925714-109.177143 50-122.365714 60.571429-1.794286 1.417143-3.2 2.72-4.091429 3.497143A222.388571 222.388571 0 0 0 409.640171 0a222.182857 222.182857 0 0 0-91.52 100.274286c-0.902857-0.777143-2.285714-2.08-4.102857-3.497143-13.177143-10.594286-56.32-43.668571-122.365714-60.571429a330.571429 330.571429 0 0 0-89.211429-10.285714 467.748571 467.748571 0 0 1 38.4 64.605714 475.531429 475.531429 0 0 1 25.211429 62.022857 184 184 0 0 0-25.6-1.028571c-65.142857 1.931429-114.434286 37.714286-140.411429 60.857143a300.754286 300.754286 0 0 1 64 33.2 312 312 0 0 1 51.84 44.571428C-2.2684 403.92-0.096971 608.937143 0.017314 620.308571c0.64 45.714286 12.571429 252.902857 136.571429 344 26.491429 19.508571 50.56 28.422857 72.708571 35.017143C263.720171 1015.725714 325.7316 1024 393.2516 1024c5.382857 0 10.754286 0 16.388571-0.125714 5.634286 0.125714 11.005714 0.125714 16.377143 0.125714 67.588571 0 129.542857-8.274286 184-24.674286 22.137143-6.594286 46.205714-15.508571 72.697143-35.017143 124.034286-91.097143 136-298.285714 136.582857-344 0.068571-11.371429 2.24-216.388571-115.897143-330.228571z" fill="#25467A" p-id="9773"></path><path d="M749.9716 208.8a273.337143 273.337143 0 0 0-105.302857-7.222857c-71.485714 9.142857-120.285714 44.571429-141.165714 61.897143L613.434457 339.428571a183.622857 183.622857 0 0 1 136.537143-130.628571zM69.285886 208.8a273.337143 273.337143 0 0 1 105.302857-7.222857c71.485714 9.142857 120.274286 44.571429 141.165714 61.897143L205.823029 339.428571a186.102857 186.102857 0 0 0-55.92-89.52 184.948571 184.948571 0 0 0-80.617143-41.108571z" fill="#73A22C" p-id="9774"></path><path d="M179.240171 81.6a261.885714 261.885714 0 0 1 166.4 128 202.742857 202.742857 0 0 1 64-153.6v230.4H256.017314a306.845714 306.845714 0 0 0-12.8-89.6 309.714286 309.714286 0 0 0-63.977143-115.2z" fill="#81B532" p-id="9775"></path><path d="M640.017314 81.6a261.885714 261.885714 0 0 0-166.4 128 202.742857 202.742857 0 0 0-64-153.6v230.4h153.6a306.068571 306.068571 0 0 1 12.8-89.6 309.497143 309.497143 0 0 1 64-115.2z" fill="#81B532" p-id="9776"></path><path d="M652.074457 311.542857c-19.92-14.857143-38.148571-21.611429-56.937143-27.428571-36.857143-11.268571-97.828571-24.96-185.497143-23.188572-87.668571-1.771429-148.64 11.92-185.508571 23.188572-18.788571 5.782857-37.017143 12.571429-56.937143 27.428571-107.908571 79.84-116.571429 264.434286-115.931428 309.611429 0.731429 50.4 14.96 231.531429 115.931428 306.285714 20.411429 15.177143 39.12 21.988571 56.937143 27.428571 35.577143 10.811429 96.308571 24.411429 185.508571 22.548572 89.2 1.862857 149.931429-11.737143 185.497143-22.548572 17.828571-5.394286 36.571429-12.205714 56.937143-27.428571 100.982857-74.811429 115.2-255.942857 115.931429-306.285714C768.645886 576 760.017314 391.382857 652.074457 311.542857z" fill="#FEBE00" p-id="9777"></path><path d="M332.074457 974.948571a701.794286 701.794286 0 0 0 77.565714 2.434286 701.897143 701.897143 0 0 0 77.565715-2.434286zM695.3316 355.165714l17.92 27.428572a281.405714 281.405714 0 0 0-17.92-27.428572z m-84.091429-65.657143l23.931429 11.062858a158.742857 158.742857 0 0 0-23.931429-11.062858zM502.177314 265.142857l28.674286 3.965714c-8.96-1.497143-18.56-2.765714-28.674286-3.965714z m-318.08 35.428572l24-11.005715a158.342857 158.342857 0 0 0-24 11.005715z m175.108572-38.857143l36.571428-0.891429c-12.765714 0.011429-25.051429 0.262857-36.571428 0.891429zM54.943029 555.36c-1.142857 9.862857-1.92 19.074286-2.422858 27.428571m14.08-95.36c-3.714286 15.36-6.4 30.331429-8.582857 44.571429m26.365715-103.177143c-3.84 10.114286-7.291429 20.354286-10.365715 30.594286m49.92-104.194286a281.405714 281.405714 0 0 0-17.92 27.428572m639.234286 76.8c-3.074286-10.285714-6.525714-20.48-10.365714-30.594286m26.365714 103.177143c-2.171429-14.217143-4.868571-29.188571-8.571429-44.571429m14.08 95.36c-0.514286-8.32-1.28-17.531429-2.434285-27.428571m-15.234286 204.125714c5.245714-20.571429 9.085714-40.697143 11.908571-59.131429 1.28-1.794286 2.422857-3.588571 3.702858-5.382857-1.017143-0.125714-1.92-0.125714-2.937143-0.251428 1.405714-9.348571 2.434286-18.171429 3.325714-26.491429" fill="#FEB400" p-id="9778"></path><path d="M736.417314 577.508571c10.377143 1.92 20.48 3.702857 30.342857 5.245715-0.514286-8.32-1.28-17.542857-2.434285-27.428572-4.571429-0.765714-9.222857-1.531429-13.954286-2.285714 3.84-7.177143 7.554286-14.08 10.88-21.12-2.171429-14.217143-4.857143-29.188571-8.571429-44.571429-8.32 19.325714-18.285714 39.417143-29.714285 60.16a707.76 707.76 0 0 1-86.525715-24.96 682.502857 682.502857 0 0 0 50.045715-82.045714c19.977143 7.417143 39.68 13.714286 58.754285 18.811429-3.074286-10.285714-6.525714-20.48-10.365714-30.594286-12.034286-3.702857-24.32-7.68-36.571428-12.285714 5.497143-11.645714 10.365714-22.914286 14.971428-33.92a281.405714 281.405714 0 0 0-17.92-27.428572c-6.137143 16.137143-13.44 33.417143-21.885714 51.428572a632.388571 632.388571 0 0 1-73.988572-36.102857A724.914286 724.914286 0 0 0 635.1716 300.571429a158.742857 158.742857 0 0 0-23.931429-11.005715 672.925714 672.925714 0 0 1-34.285714 67.428572A643.222857 643.222857 0 0 1 510.874457 309.348571l-3.428571-3.062857c8.571429-12.411429 16.251429-24.96 23.417143-37.12-8.96-1.542857-18.56-2.811429-28.674286-3.965714-4.571429 7.68-9.6 15.485714-14.857143 23.417143-9.6-8.822857-18.685714-17.92-27.257143-26.88-11.531429-0.64-23.817143-0.891429-36.571428-0.891429A569.977143 569.977143 0 0 0 472.017314 310.502857a588.114286 588.114286 0 0 1-62.331428 71.805714 587.257143 587.257143 0 0 1-62.342857-71.805714 569.977143 569.977143 0 0 0 48.514285-49.668571c-12.8 0-25.085714 0.251429-36.571428 0.891428-8.571429 8.96-17.668571 18.057143-27.268572 26.88-5.245714-7.931429-10.285714-15.737143-14.857143-23.417143-10.114286 1.142857-19.714286 2.422857-28.674285 3.965715 7.177143 12.16 14.857143 24.708571 23.428571 37.12l-3.428571 3.074285A642.091429 642.091429 0 0 1 242.303029 356.96a672.708571 672.708571 0 0 1-34.285715-67.428571 158.342857 158.342857 0 0 0-24 11.005714 730.16 730.16 0 0 0 35.714286 70.011428 633.142857 633.142857 0 0 1-73.977143 36.102858c-8.457143-18.045714-15.748571-35.325714-21.897143-51.428572a281.405714 281.405714 0 0 0-17.92 27.428572c4.571429 11.005714 9.474286 22.274286 14.982857 33.92-12.297143 4.571429-24.582857 8.582857-36.571428 12.285714-3.851429 10.114286-7.302857 20.354286-10.377143 30.594286 19.074286-5.12 38.788571-11.428571 58.754286-18.811429A683.977143 683.977143 0 0 0 182.874457 522.594286a707.188571 707.188571 0 0 1-86.525714 24.96c-11.428571-20.742857-21.371429-40.834286-29.714286-60.16-3.714286 15.36-6.4 30.331429-8.582857 44.571428 3.325714 7.04 7.04 13.942857 10.88 21.12-4.731429 0.765714-9.337143 1.531429-13.954286 2.285715-1.142857 9.851429-1.908571 19.074286-2.422857 27.428571 9.851429-1.542857 19.965714-3.325714 30.331429-5.245714a669.885714 669.885714 0 0 0 56 80 743.142857 743.142857 0 0 1-84.571429 10.754285c0.902857 8.32 1.92 17.142857 3.325714 26.491429a789.817143 789.817143 0 0 0 100.994286-14.08 655.051429 655.051429 0 0 0 70.274286 67.428571c3.074286 2.56 6.274286 4.868571 9.348571 7.428572a782.022857 782.022857 0 0 1-121.085714 17.92A652.137143 652.137143 0 0 1 58.303029 700.388571a572.274286 572.274286 0 0 0 11.771428 59.005715c4.354286 5.371429 8.834286 10.617143 13.314286 15.748571-2.948571 0.125714-5.885714 0.251429-8.96 0.251429 2.56 8.834286 5.371429 17.668571 8.445714 26.365714 8-0.251429 15.874286-0.64 23.68-1.017143a674.674286 674.674286 0 0 0 56 51.965714c10.868571 9.142857 22.137143 17.531429 33.531429 25.851429-23.302857 2.182857-47.36 3.325714-72.571429 3.428571a202.365714 202.365714 0 0 0 21.885714 26.114286 791.714286 791.714286 0 0 0 84.331429-6.628571A683.005714 683.005714 0 0 0 363.937314 968c-10.617143 2.56-21.12 4.868571-31.862857 6.914286a701.794286 701.794286 0 0 0 77.565714 2.434285 701.897143 701.897143 0 0 0 77.565715-2.434285c-10.754286-2.045714-21.245714-4.354286-31.874286-6.914286a683.428571 683.428571 0 0 0 134.274286-66.56 791.714286 791.714286 0 0 0 84.354285 6.651429 203.291429 203.291429 0 0 0 21.885715-26.114286c-25.211429-0.125714-49.28-1.268571-72.571429-3.428572 11.428571-8.32 22.651429-16.765714 33.531429-25.851428a651.771429 651.771429 0 0 0 55.805714-51.965714c7.931429 0.377143 15.874286 0.765714 23.805714 1.017142 3.074286-8.697143 5.885714-17.531429 8.457143-26.365714-3.074286-0.125714-6.022857-0.125714-8.971428-0.251428 4.491429-5.131429 8.971429-10.377143 13.188571-15.622858 5.245714-20.571429 9.085714-40.708571 11.908571-59.131428a653.428571 653.428571 0 0 1-58.754285 73.085714 797.268571 797.268571 0 0 1-121.142857-17.92c3.074286-2.56 6.4-4.868571 9.337142-7.428571a655.051429 655.051429 0 0 0 70.274286-67.428572 766.114286 766.114286 0 0 0 100.994286 14.08c1.405714-9.348571 2.434286-18.171429 3.325714-26.491428a742.96 742.96 0 0 1-84.571428-10.754286 668.434286 668.434286 0 0 0 55.954285-80.011429zM585.765886 393.142857A679.405714 679.405714 0 0 0 661.7316 430.56a636.571429 636.571429 0 0 1-50.948571 82.182857 639.325714 639.325714 0 0 1-83.588572-41.222857A635.691429 635.691429 0 0 0 585.765886 393.142857zM317.857314 627.68a674.937143 674.937143 0 0 0 91.782857-52.731429 674.137143 674.137143 0 0 0 91.771429 52.731429 651.337143 651.337143 0 0 1-91.771429 61.954286 640.857143 640.857143 0 0 1-91.782857-61.954286z m203.428572 138.754286a640.445714 640.445714 0 0 1-111.611429 59.771428 640.16 640.16 0 0 1-111.622857-59.771428 679.885714 679.885714 0 0 0 111.622857-46.594286 679.36 679.36 0 0 0 111.577143 46.594286zM295.720171 608.868571a613.874286 613.874286 0 0 1-70.525714-74.285714 651.588571 651.588571 0 0 0 85.245714-43.142857 607.531429 607.531429 0 0 0 50.937143 47.497143c8.457143 6.857143 17.028571 13.302857 25.348572 19.702857a641.965714 641.965714 0 0 1-91.005715 50.228571z m136.822858-50.182857c8.331429-6.4 16.902857-12.8 25.348571-19.702857a609.497143 609.497143 0 0 0 50.948571-47.497143 650.88 650.88 0 0 0 85.245715 43.142857 614.765714 614.765714 0 0 1-70.525715 74.285715 642.068571 642.068571 0 0 1-91.017142-50.228572zM492.074457 328c0.765714 0.514286 1.268571 1.28 1.92 1.794286a648.697143 648.697143 0 0 0 69.245714 49.782857 589.782857 589.782857 0 0 1-58.88 77.828571 602.285714 602.285714 0 0 1-59.771428-43.485714c-5.371429-4.48-10.365714-8.96-15.485714-13.44a618.617143 618.617143 0 0 0 62.971428-72.48z m-82.434286 90.628571c5.885714 5.245714 11.771429 10.617143 18.045715 15.737143a696.754286 696.754286 0 0 0 58.285714 42.88 592.114286 592.114286 0 0 1-45.051429 41.222857c-10.285714 8.571429-20.742857 16.502857-31.234285 24.182858-10.502857-7.68-20.994286-15.611429-31.234286-24.182858a590.171429 590.171429 0 0 1-45.062857-41.222857 696.891429 696.891429 0 0 0 58.285714-42.88c6.182857-5.085714 12.068571-10.457143 17.965714-15.702857z m-84.354285-88.8c0.64-0.514286 1.142857-1.28 1.92-1.794285a618.48 618.48 0 0 0 62.971428 72.445714c-5.12 4.48-10.102857 8.96-15.485714 13.44a603.428571 603.428571 0 0 1-59.771429 43.52 588.788571 588.788571 0 0 1-58.902857-77.828571 651.005714 651.005714 0 0 0 69.268572-49.782858z m-167.68 100.731429A679.268571 679.268571 0 0 0 233.503029 393.142857a623.211429 623.211429 0 0 0 58.628571 78.331429 637.92 637.92 0 0 1-83.588571 41.222857 637.714286 637.714286 0 0 1-50.937143-82.137143zM110.497314 571.611429a732.857143 732.857143 0 0 0 88.834286-26.742858 608 608 0 0 0 69.371429 75.428572 697.337143 697.337143 0 0 1-100.217143 31.222857 640.388571 640.388571 0 0 1-57.988572-79.908571z m77.828572 102.274285A699.645714 699.645714 0 0 0 290.8516 640a55.908571 55.908571 0 0 1 4.228571 3.714286 686.194286 686.194286 0 0 0 86.525715 60.571428 648.285714 648.285714 0 0 1-111.108572 42.88c-8.571429-6.4-17.017143-12.925714-24.697143-19.428571a596.045714 596.045714 0 0 1-57.474285-53.851429zM179.445886 832.354286c-13.565714-11.142857-26.285714-22.651429-38.4-34.285715a765.714286 765.714286 0 0 0 123.908571-22.137142 687.074286 687.074286 0 0 0 109.44 64 720.96 720.96 0 0 1-138.628571 33.92A632 632 0 0 1 179.445886 832.354286z m230.148571 123.428571a683.28 683.28 0 0 1-139.428571-60.422857 742.377143 742.377143 0 0 0 139.428571-40.182857 739.428571 739.428571 0 0 0 139.428572 40.182857 683.828571 683.828571 0 0 1-139.382858 60.388571z m268.571429-157.714286c-12.16 11.657143-24.834286 23.165714-38.4 34.285715a630.377143 630.377143 0 0 1-56.32 41.474285 721.051429 721.051429 0 0 1-138.617143-33.92 680.365714 680.365714 0 0 0 109.302857-64 769.977143 769.977143 0 0 0 124.045714 22.137143z m-104.697143-70.4c-7.68 6.537143-16 13.062857-24.708572 19.428572A648.16 648.16 0 0 1 437.7316 704.228571a675.222857 675.222857 0 0 0 86.525714-60.674285c1.405714-1.28 2.811429-2.434286 4.091429-3.588572a705.977143 705.977143 0 0 0 102.651428 33.92 594.548571 594.548571 0 0 1-57.52 53.76z m77.314286-76.16a697.92 697.92 0 0 1-100.228572-31.222857 608 608 0 0 0 69.371429-75.428571 733.462857 733.462857 0 0 0 88.834285 26.742857 639.097143 639.097143 0 0 1-57.965714 79.885714z" fill="#FEB400" p-id="9779"></path><path d="M345.640171 614.4a64.068571 64.068571 0 0 1-64-64 12.8 12.8 0 0 1 25.6 0 38.4 38.4 0 1 0 76.8 0 12.8 12.8 0 1 1 25.6 0 64.08 64.08 0 0 1-64 64z" fill="#25467A" p-id="9780"></path><path d="M217.640171 448m-38.4 0a38.4 38.4 0 1 0 76.8 0 38.4 38.4 0 1 0-76.8 0Z" fill="#25467A" p-id="9781"></path><path d="M473.640171 448m-38.4 0a38.4 38.4 0 1 0 76.8 0 38.4 38.4 0 1 0-76.8 0Z" fill="#25467A" p-id="9782"></path><path d="M166.440171 512h-51.2a25.6 25.6 0 0 0 0 51.2h51.2a25.6 25.6 0 1 0 0-51.2zM576.017314 512h-51.2a25.6 25.6 0 0 0 0 51.2H576.017314a25.6 25.6 0 1 0 0-51.2z" fill="#FEE14C" p-id="9783"></path><path d="M742.417314 742.4m-243.2 0a243.2 243.2 0 1 0 486.4 0 243.2 243.2 0 1 0-486.4 0Z" fill="#FED500" p-id="9784"></path><path d="M742.417314 742.4m-217.6 0a217.6 217.6 0 1 0 435.2 0 217.6 217.6 0 1 0-435.2 0Z" fill="#FEE566" p-id="9785"></path><path d="M955.445886 697.508571L900.737314 693.714286l21.371429-74.08a205.028571 205.028571 0 0 1 12.228571 20.16 216.548571 216.548571 0 0 1 21.108572 57.714285zM887.788743 904.434286l-24.08-49.234286 74.834286-18.537143a205.714286 205.714286 0 0 1-11.36 20.674286 216.72 216.72 0 0 1-39.394286 47.097143zM674.7716 949.314286l30.594286-45.485715L758.874457 959.382857a204.571429 204.571429 0 0 1-23.588571 0.502857 216.845714 216.845714 0 0 1-60.514286-10.571428zM529.400171 787.268571l54.685715 3.76-21.371429 74.114286a204.342857 204.342857 0 0 1-12.228571-20.171428 216.685714 216.685714 0 0 1-21.085715-57.702858zM597.057314 580.354286l24.091429 49.234285L546.303029 648.114286a205.714286 205.714286 0 0 1 11.36-20.685715 216.708571 216.708571 0 0 1 39.394285-47.074285zM810.085886 535.497143L779.445886 580.971429l-53.462857-55.554286a204.685714 204.685714 0 0 1 23.588571-0.502857 216.857143 216.857143 0 0 1 60.514286 10.582857z" fill="#FED500" p-id="9786"></path><path d="M742.417314 742.4m-51.2 0a51.2 51.2 0 1 0 102.4 0 51.2 51.2 0 1 0-102.4 0Z" fill="#FED500" p-id="9787"></path></svg>